<svg width="17" height="17" viewBox="0 0 17 17" fill="none" xmlns="http://www.w3.org/2000/svg">
<path d="M8.5019 4.14142C6.08985 4.14142 4.14428 6.08742 4.14428 8.5C4.14428 10.9126 6.08985 12.8586 8.5019 12.8586C10.9139 12.8586 12.8595 10.9126 12.8595 8.5C12.8595 6.08742 10.9139 4.14142 8.5019 4.14142ZM8.5019 11.3337C6.94317 11.3337 5.66888 10.0629 5.66888 8.5C5.66888 6.93713 6.93937 5.66635 8.5019 5.66635C10.0644 5.66635 11.3349 6.93713 11.3349 8.5C11.3349 10.0629 10.0606 11.3337 8.5019 11.3337ZM14.0542 3.96313C14.0542 4.52834 13.5991 4.97975 13.0378 4.97975C12.4727 4.97975 12.0214 4.52455 12.0214 3.96313C12.0214 3.40171 12.4765 2.9465 13.0378 2.9465C13.5991 2.9465 14.0542 3.40171 14.0542 3.96313ZM16.9403 4.99492C16.8758 3.6331 16.5648 2.42681 15.5674 1.43295C14.5737 0.439083 13.3677 0.128026 12.0062 0.0597456C10.603 -0.0199152 6.39704 -0.0199152 4.99381 0.0597456C3.63608 0.124233 2.43006 0.435289 1.43263 1.42915C0.435192 2.42302 0.127998 3.62931 0.0597323 4.99113C-0.0199108 6.39468 -0.0199108 10.6015 0.0597323 12.0051C0.124205 13.3669 0.435192 14.5732 1.43263 15.5671C2.43006 16.5609 3.63229 16.872 4.99381 16.9403C6.39704 17.0199 10.603 17.0199 12.0062 16.9403C13.3677 16.8758 14.5737 16.5647 15.5674 15.5671C16.561 14.5732 16.872 13.3669 16.9403 12.0051C17.0199 10.6015 17.0199 6.39847 16.9403 4.99492ZM15.1274 13.511C14.8316 14.2545 14.259 14.8273 13.5118 15.127C12.393 15.5708 9.73826 15.4684 8.5019 15.4684C7.26553 15.4684 4.60697 15.5671 3.49197 15.127C2.74863 14.8311 2.17596 14.2583 1.87635 13.511C1.43263 12.392 1.53503 9.73664 1.53503 8.5C1.53503 7.26336 1.43642 4.60421 1.87635 3.48896C2.17217 2.74545 2.74484 2.17265 3.49197 1.87298C4.61076 1.42915 7.26553 1.53157 8.5019 1.53157C9.73826 1.53157 12.3968 1.43295 13.5118 1.87298C14.2552 2.16886 14.8278 2.74166 15.1274 3.48896C15.5712 4.608 15.4688 7.26336 15.4688 8.5C15.4688 9.73664 15.5712 12.3958 15.1274 13.511Z" fill="white"/>
</svg>
