<svg width="18" height="14" viewBox="0 0 18 14" fill="none" xmlns="http://www.w3.org/2000/svg">
<path fill-rule="evenodd" clip-rule="evenodd" d="M8.77907 4.32979L8.74003 3.72421C8.62296 2.15475 9.65042 0.721212 11.2762 0.165149C11.8745 -0.0326009 12.8889 -0.0573197 13.5523 0.115712C13.8123 0.189868 14.3066 0.436983 14.6577 0.659451L15.295 1.06727L15.9973 0.857202C16.3876 0.745931 16.9078 0.560576 17.1419 0.436983C17.363 0.325785 17.5581 0.263951 17.5581 0.301066C17.5581 0.511139 17.0769 1.22791 16.6737 1.62334C16.1274 2.17947 16.2835 2.22891 17.389 1.85813C18.0524 1.64806 18.0653 1.64806 17.9353 1.88285C17.8572 2.00644 17.454 2.43898 17.0248 2.83441C16.2965 3.51414 16.2575 3.5883 16.2575 4.15676C16.2575 5.03416 15.8153 6.86313 15.3731 7.86413C14.5537 9.74254 12.7979 11.6827 11.0421 12.659C8.57098 14.0308 5.28041 14.3768 2.51017 13.5735C1.58675 13.3016 0 12.6096 0 12.486C0 12.4489 0.481193 12.3995 1.06651 12.3872C2.28905 12.3624 3.5116 12.0411 4.55208 11.4726L5.25446 11.0772L4.44803 10.8177C3.3035 10.4469 2.27604 9.59422 2.01596 8.79097C1.93786 8.53146 1.96389 8.51907 2.69223 8.51907L3.4466 8.50675L2.80929 8.22252C2.05493 7.86413 1.36564 7.25856 1.02746 6.64066C0.78032 6.1958 0.468254 5.0712 0.559286 4.98472C0.58524 4.94768 0.858414 5.02177 1.17056 5.12064C2.06794 5.42959 2.18501 5.35543 1.66477 4.83641C0.689288 3.89725 0.39016 2.50074 0.858414 1.17847L1.07953 0.585295L1.93786 1.38855C3.69374 3.00744 5.76168 3.9714 8.12875 4.25563L8.77907 4.32979Z" fill="white"/>
</svg>
